<svg xmlns="http://www.w3.org/2000/svg" xmlns:xlink="http://www.w3.org/1999/xlink">
  <defs/>
  <g>
    <path stroke="none" fill="#000000" d="M43.8 9.65 L40 12.6 Q37.7 14.35 35.45 15.25 32.35 16.45 27.7 17 L12.65 17.6 Q7.9 17.8 5.2 15.2 2.35 12.45 9.3 11.05 10 10.6 13.25 9.95 18.25 8.95 19.85 8.1 21.95 7 25.85 5.85 L30.05 4.45 Q39.2 -0.6 42.65 2.9 44.4 4.65 44.25 7.5 44.2 9.2 43.8 9.65 M33.75 5.45 L29.35 7.3 30.65 11.25 35.2 9.05 33.75 5.45 M36.6 8.5 L41.55 6 39.7 2.7 35.05 5.05 36.6 8.5 M28.2 7.6 L23.2 9.15 24.05 12 28.85 11.55 28.2 7.6 M21.55 9.5 L16.2 10.65 16.9 13.55 22 12.2 21.55 9.5 M6.75 13.3 L7.05 14.6 13.75 14.6 15.15 14.25 14.4 11.3 6.75 13.3"/>
    <path stroke="none" fill="#FFFFFF" d="M6.75 13.3 L14.4 11.3 15.15 14.25 13.75 14.6 7.05 14.6 6.75 13.3 M36.6 8.5 L35.05 5.05 39.7 2.7 41.55 6 36.6 8.5 M33.75 5.45 L35.2 9.05 30.65 11.25 29.35 7.3 33.75 5.45 M28.2 7.6 L28.85 11.55 24.05 12 23.2 9.15 28.2 7.6 M21.55 9.5 L22 12.2 16.9 13.55 16.2 10.65 21.55 9.5"/>
  </g>
</svg>