<svg xmlns="http://www.w3.org/2000/svg" xmlns:xlink="http://www.w3.org/1999/xlink">
  <defs/>
  <g>
    <path stroke="none" fill="#000000" d="M15.4 7.85 Q12.05 11.55 9.7 12.15 L7.15 12.6 Q6.95 12.4 5.15 12.05 3.3 11.7 5.85 11.4 L8.4 11 Q11.05 10.15 12.3 9.1 L14 7.25 Q14.4 6.4 16.2 5.6 18.7 4.1 15.4 7.85 M12.75 6.35 Q9.85 8.1 8.85 8.9 7.8 9.65 3.55 10.55 -0.75 11.35 0.15 9.1 0.4 8.45 1.05 8.3 L1 8.2 1.05 8.2 1.05 8.3 3.9 7 Q5.55 6.2 6.65 5.8 L9.05 4.2 10.6 2.6 11.5 2.05 Q17.15 -1.4 16.4 1.6 15.65 4.6 12.75 6.35 M7.1 0 Q7.7 -0.05 5.85 0.6 3.95 1.2 2.75 2.25 1.5 2.55 1.35 4.35 0.85 4.85 0.4 5.75 0.25 2.25 2.5 1.35 5 0.3 5.75 0.2 L7.1 0"/>
  </g>
</svg>