<svg xmlns="http://www.w3.org/2000/svg" xmlns:xlink="http://www.w3.org/1999/xlink">
  <defs/>
  <g>
    <path stroke="none" fill="#000000" d="M34.2 4.35 Q36.45 3.05 39.35 3.95 42.25 4.75 42.5 6.1 42.75 7.4 37.35 11.45 32.05 15.45 24.35 16.6 18.6 17.45 14.35 16.6 L10.25 15.55 Q8.45 14.85 7.65 13.55 5.85 10.6 11.75 11 L20.6 10.2 Q26.45 9.2 27.75 8.4 33.4 4.8 34.2 4.35 M24.25 5.75 Q22.35 6.35 21.3 7.25 20 7.7 18.85 9 L18.65 9.05 18.35 9.2 Q19.3 7.1 20.9 6.5 23.4 5.45 24.15 5.35 L25.5 5.15 Q26.1 5.1 24.25 5.75 M18.85 13.2 L19.4 13.35 19.45 13.35 18.85 13.2"/>
  </g>
</svg>