<svg xmlns="http://www.w3.org/2000/svg" xmlns:xlink="http://www.w3.org/1999/xlink">
  <defs/>
  <g>
    <path stroke="none" fill="#000000" d="M35.65 11.15 Q33.35 12.9 31.1 13.8 28 15 23.35 15.55 L8.3 16.15 Q3.55 16.35 0.85 13.75 -2 11 4.95 9.6 5.65 9.15 8.9 8.5 13.9 7.5 15.5 6.65 17.6 5.55 21.5 4.4 L25.7 3 Q34.85 -2.05 38.3 1.45 40.05 3.2 39.9 6.05 39.85 7.75 39.45 8.2 L35.65 11.15 M32.25 7.05 L37.2 4.55 35.35 1.25 30.7 3.6 32.25 7.05 M24.5 10.1 L23.85 6.15 18.85 7.7 19.7 10.55 24.5 10.1 M26.3 9.8 L30.85 7.6 29.4 4 25 5.85 26.3 9.8 M11.85 9.2 L12.55 12.1 17.65 10.75 17.2 8.05 11.85 9.2 M10.05 9.85 L2.4 11.85 2.7 13.15 9.4 13.15 10.8 12.8 10.05 9.85"/>
    <path stroke="none" fill="#FFFFFF" d="M10.05 9.85 L10.8 12.8 9.4 13.15 2.7 13.15 2.4 11.85 10.05 9.85 M32.25 7.05 L30.7 3.6 35.35 1.25 37.2 4.55 32.25 7.05 M24.5 10.1 L19.7 10.55 18.85 7.7 23.85 6.15 24.5 10.1 M11.85 9.2 L17.2 8.05 17.65 10.75 12.55 12.1 11.85 9.2 M26.3 9.8 L25 5.85 29.4 4 30.85 7.6 26.3 9.8"/>
  </g>
</svg>