<svg xmlns="http://www.w3.org/2000/svg" xmlns:xlink="http://www.w3.org/1999/xlink">
  <defs/>
  <g>
    <path stroke="none" fill="#000000" d="M23.2 6.55 Q27.15 3.9 23.8 7.7 20.4 11.45 17.35 12.6 L14.15 13.55 12.15 13.2 Q10.3 13.05 12.85 12.8 15.4 12.55 16.75 11.85 L19.35 10.2 21.25 8.95 23.2 6.55 M12.85 1.55 Q10.95 2.15 9.9 3.05 8.6 3.5 7.45 4.8 L7.25 4.85 6.95 5 Q7.9 2.9 9.5 2.3 12 1.25 12.75 1.15 L14.1 0.95 Q14.7 0.9 12.85 1.55 M20 6.6 Q14.8 10.65 12 11.75 9.15 12.8 4.55 12.7 -0.05 12.55 0 10.2 0 7.85 4.5 8.25 L6.35 8.45 8.25 8.45 Q11.5 7.7 15.55 5.85 L19.35 4.05 22.35 1.6 Q25.05 -1.1 25.15 0.7 25.2 2.5 20 6.6"/>
  </g>
</svg>