<svg xmlns="http://www.w3.org/2000/svg" xmlns:xlink="http://www.w3.org/1999/xlink">
  <defs/>
  <g>
    <path stroke="none" fill="#000000" d="M35.25 2.5 Q35.5 3.8 30.1 7.85 24.8 11.85 17.1 13 11.35 13.85 7.1 13 L3 11.95 Q1.2 11.25 0.4 9.95 -1.4 7 4.5 7.4 L13.35 6.6 Q19.2 5.6 20.5 4.8 26.15 1.2 26.95 0.75 29.2 -0.55 32.1 0.35 35 1.15 35.25 2.5 M17 2.15 Q15.1 2.75 14.05 3.65 12.75 4.1 11.6 5.4 L11.4 5.45 11.1 5.6 Q12.05 3.5 13.65 2.9 16.15 1.85 16.9 1.75 L18.25 1.55 Q18.85 1.5 17 2.15 M11.6 9.6 L12.15 9.75 12.2 9.75 11.6 9.6"/>
  </g>
</svg>