<svg xmlns="http://www.w3.org/2000/svg" xmlns:xlink="http://www.w3.org/1999/xlink">
  <defs/>
  <g>
    <path stroke="none" fill="#000000" d="M12.8 3.9 L11.55 6.05 9.8 8.25 7.65 9.3 4.6 10.2 Q1.85 10.7 2.6 8.35 3.35 6 4.2 5.45 7.8 2.45 11.05 2.05 14.4 1.5 12.8 3.9 M13.55 7.25 Q13.95 6.4 15.75 5.6 14.6 8.3 13.05 10 11.6 11.55 9.25 12.15 L6.7 12.6 4.7 12.05 Q2.85 11.7 5.4 11.4 L7.95 11 Q10.6 10.15 11.85 9.1 L13.55 7.25 M6.65 0 Q7.25 -0.05 5.4 0.6 3.5 1.2 2.95 3 L1.35 5.55 0.35 7.9 0 6.7 Q1.7 1.85 4.15 0.5 4.55 0.3 5.3 0.2 L6.65 0"/>
  </g>
</svg>