<svg xmlns="http://www.w3.org/2000/svg" xmlns:xlink="http://www.w3.org/1999/xlink">
  <defs/>
  <g>
    <path stroke="none" fill="#000000" d="M45.45 6.1 L47.2 2.75 46.7 1.45 43.6 1.45 41.45 2.6 43.95 7 45.45 6.1 M46.55 8 Q44.7 8.95 39.75 12.75 37.45 14.5 35.2 15.4 32.1 16.6 27.45 17.15 L13.35 17.8 8.7 17.55 Q4.6 17.3 0.6 14.35 -0.15 13.8 0 12.9 L0.25 12.1 Q0.25 11.6 4.2 10.65 L9.35 9.5 13.35 8.2 26 4.7 28.05 4 Q31.3 2.9 35.65 1.7 41.5 0.05 43.8 0 50.65 -0.25 49.9 3.2 49.1 6.65 46.55 8 M34.9 5.1 L37.65 10 41.5 7.9 39.85 2.9 34.9 5.1 M13.75 15.85 L14.95 15.55 14.35 11.15 8.5 11.95 9.5 15.45 13.75 15.85 M2.05 12.5 L2.65 13.95 6.9 15.1 6.7 12.15 2.05 12.5 M22.05 14.45 L21.45 9.65 16.05 10.9 17.15 15.2 22.05 14.45 M27.8 8.1 L22.95 9.35 24.55 14 28.8 13.15 27.8 8.1 M35.25 11.1 L33.55 5.85 29.2 7.6 31.3 12.5 35.25 11.1"/>
    <path stroke="none" fill="#FFFFFF" d="M35.25 11.1 L31.3 12.5 29.2 7.6 33.55 5.85 35.25 11.1 M45.45 6.1 L43.95 7 41.45 2.6 43.6 1.45 46.7 1.45 47.2 2.75 45.45 6.1 M34.9 5.1 L39.85 2.9 41.5 7.9 37.65 10 34.9 5.1 M27.8 8.1 L28.8 13.15 24.55 14 22.95 9.35 27.8 8.1 M22.05 14.45 L17.15 15.2 16.05 10.9 21.45 9.65 22.05 14.45 M2.05 12.5 L6.7 12.15 6.9 15.1 2.65 13.95 2.05 12.5 M13.75 15.85 L9.5 15.45 8.5 11.95 14.35 11.15 14.95 15.55 13.75 15.85"/>
  </g>
</svg>