<svg xmlns="http://www.w3.org/2000/svg" xmlns:xlink="http://www.w3.org/1999/xlink">
  <defs/>
  <g>
    <path stroke="none" fill="#000000" d="M30.9 7.95 Q31.65 7.7 33.9 5.5 36.6 2.8 36.7 4.6 36.75 6.4 31.55 10.5 26.35 14.55 23.55 15.65 20.7 16.7 16.1 16.6 11.5 16.45 11.55 14.1 11.55 11.75 16.05 12.15 L17.9 12.35 19.8 12.35 Q23.05 11.6 27.1 9.75 L30.9 7.95 M35.35 11.6 Q31.95 15.35 28.9 16.5 L25.7 17.45 23.7 17.1 Q21.85 16.95 24.4 16.7 26.95 16.45 28.3 15.75 L30.9 14.1 32.8 12.85 34.75 10.45 Q38.7 7.8 35.35 11.6 M21.45 6.95 Q20.15 7.4 19 8.7 L18.8 8.75 18.5 8.9 Q19.45 6.8 21.05 6.2 23.55 5.15 24.3 5.05 L25.65 4.85 Q26.25 4.8 24.4 5.45 22.5 6.05 21.45 6.95"/>
  </g>
</svg>