<svg xmlns="http://www.w3.org/2000/svg" xmlns:xlink="http://www.w3.org/1999/xlink">
  <defs/>
  <g>
    <path stroke="none" fill="#000000" d="M30.45 10.65 L28.7 12.85 26.55 13.9 23.5 14.8 Q20.75 15.3 21.5 12.95 22.25 10.6 23.1 10.05 26.7 7.05 29.95 6.65 33.3 6.1 31.7 8.5 L30.45 10.65 M34.65 10.2 Q33.5 12.9 31.95 14.6 30.5 16.15 28.15 16.75 L25.6 17.2 23.6 16.65 Q21.75 16.3 24.3 16 L26.85 15.6 Q29.5 14.75 30.75 13.7 32 12.65 32.45 11.85 32.85 11 34.65 10.2 M24.3 5.2 Q22.4 5.8 21.85 7.6 L20.25 10.15 19.25 12.5 18.9 11.3 Q20.6 6.45 23.05 5.1 L24.2 4.8 25.55 4.6 Q26.15 4.55 24.3 5.2"/>
  </g>
</svg>