<svg xmlns="http://www.w3.org/2000/svg" xmlns:xlink="http://www.w3.org/1999/xlink">
  <defs/>
  <g>
    <path stroke="none" fill="#000000" d="M30.95 11.15 L27.05 13.7 Q26 14.45 21.75 15.35 17.45 16.15 18.35 13.9 18.6 13.25 19.25 13.1 L19.2 13 19.25 13 19.25 13.1 22.1 11.8 24.85 10.6 Q26 10.2 27.25 9 L28.8 7.4 29.7 6.85 Q35.35 3.4 34.6 6.4 33.85 9.4 30.95 11.15 M34.4 10.4 Q36.9 8.9 33.6 12.65 30.25 16.35 27.9 16.95 L25.35 17.4 Q25.15 17.2 23.35 16.85 21.5 16.5 24.05 16.2 L26.6 15.8 Q29.25 14.95 30.5 13.9 L32.2 12.05 Q32.6 11.2 34.4 10.4 M24.05 5.4 Q22.15 6 20.95 7.05 19.7 7.35 19.55 9.15 L18.6 10.55 Q18.45 7.05 20.7 6.15 23.2 5.1 23.95 5 L25.3 4.8 Q25.9 4.75 24.05 5.4"/>
  </g>
</svg>